<?xml version="1.0" encoding="utf-8"?>
<!-- Generator: Adobe Illustrator 18.1.1, SVG Export Plug-In . SVG Version: 6.00 Build 0)  -->
<!DOCTYPE svg PUBLIC "-//W3C//DTD SVG 1.1 Tiny//EN" "http://www.w3.org/Graphics/SVG/1.1/DTD/svg11-tiny.dtd">
<svg version="1.1" baseProfile="tiny" id="Livello_1"
	 xmlns="http://www.w3.org/2000/svg" xmlns:xlink="http://www.w3.org/1999/xlink" x="0px" y="0px" viewBox="0 0 800 800"
	 xml:space="preserve">
<rect width="800" height="800"/>
<g>
	<g>
		<path fill="#FFFFFF" d="M122.4,614.4c7.1,0,9.5,2.9,9.5,9.5c0,5.9-2.6,9.2-9.6,9.2c-3.3,0-5.3-0.1-7.1-0.3v10.8h-5v-29.2H122.4z
			 M115.2,628.9c1.5,0.2,3.1,0.3,6,0.3c4.4,0,5.9-1.9,5.9-5.4c0-3.9-1.4-5.5-5.9-5.5h-6V628.9z"/>
		<path fill="#FFFFFF" d="M181.3,628.5c0,11-2.8,15.8-12.9,15.8c-10.3,0-13.2-4.1-13.2-15.9c0-11,4.2-14.7,13.2-14.7
			C176.5,613.7,181.3,617.7,181.3,628.5z M160.5,628.5c0,8.8,1.5,11.5,7.8,11.5c6.2,0,7.6-3.3,7.6-11.5c0-7.9-2.6-10.7-7.6-10.7
			C162.7,618,160.5,620.5,160.5,628.5z"/>
		<path fill="#FFFFFF" d="M228.5,643.6l-6.1-20.2l-6.1,20.2h-6.7l-7.7-29.2l5,0l6.3,24.6l6.7-24.6h4.9l6.7,24.6l6.3-24.6l5,0
			l-7.7,29.2H228.5z"/>
		<path fill="#FFFFFF" d="M270.6,618.5v8.1h13v3.8h-13v9.2h14.8v4h-19.7v-29.2H285v4H270.6z"/>
		<path fill="#FFFFFF" d="M320.5,614.4c7.1,0,9.5,2.6,9.5,8.5c0,3.9-1.4,6.6-5,7.7c1.6,0.6,2.9,2,3.6,4.1l2.8,9H326l-2.5-8.3
			c-0.7-2.1-1.9-2.9-3.5-2.9h-1.4c-2.5,0-3.9-0.1-5.3-0.2v11.3h-5v-29.2H320.5z M313.3,628.3c1.5,0.2,3,0.3,5.9,0.3
			c4.4,0,5.9-1.7,5.9-5c0-3.7-1.4-5.2-5.9-5.2h-6V628.3z"/>
		<path fill="#FFFFFF" d="M394.1,618.5v25.2h-5v-25.2h-8.8v-4h22.6v4H394.1z"/>
		<path fill="#FFFFFF" d="M449.2,628.5c0,11-2.8,15.8-12.9,15.8c-10.3,0-13.2-4.1-13.2-15.9c0-11,4.2-14.7,13.2-14.7
			C444.4,613.7,449.2,617.7,449.2,628.5z M428.4,628.5c0,8.8,1.5,11.5,7.8,11.5c6.2,0,7.6-3.3,7.6-11.5c0-7.9-2.6-10.7-7.6-10.7
			C430.6,618,428.4,620.5,428.4,628.5z"/>
		<path fill="#FFFFFF" d="M514.2,614.4c6.4,0,8.6,2.3,8.6,7.4c0,3.3-1.2,5.6-4.3,6.6c4,0.9,5.5,3.4,5.5,7.8c0,5.1-2.6,8-9.6,8
			c-6.8,0-9.2-0.3-13-0.8v-29.1H514.2z M506.5,627h6.4c3.8,0,5.1-1.5,5.1-4.3c0-3.2-1.2-4.4-5.2-4.4h-6.4V627z M506.5,640
			c1.8,0.2,3.3,0.4,6.6,0.4c4.4,0,5.9-1.7,5.9-4.9c0-3.6-1.4-5-5.9-5h-6.7V640z"/>
		<path fill="#FFFFFF" d="M552.1,630.8c0,7.1,1.2,9.3,6.9,9.3c5.6,0,6.8-2.6,6.8-9.3v-16.4h5v16.4c0,9.5-2.5,13.5-11.8,13.5
			c-9.4,0-12-3.4-12-13.6v-16.4h5V630.8z"/>
		<path fill="#FFFFFF" d="M595.3,643.6v-29.2h5v29.2H595.3z"/>
		<path fill="#FFFFFF" d="M643.1,639.6v4H625v-29.2h5v25.2H643.1z"/>
		<path fill="#FFFFFF" d="M677.4,614.4c7.9,0,12.3,3.3,12.3,14.1c0,11-2.5,15.8-12.3,15.8c-5.8,0-7.7-0.3-11.6-1.4v-28.5H677.4z
			 M670.9,639.4c1.9,0.6,3.2,0.8,6.2,0.8c5.9,0,7.5-3.3,7.5-11.6c0-7.9-2.7-10.2-7.5-10.2h-6.2V639.4z"/>
	</g>
	<g>
		<g>
			<path fill="#FFFFFF" d="M406.5,167.4v50.1c0,4.2,2.2,8,5.8,10.1l41.7,24.1c3.6,2.1,5.8,5.9,5.8,10.1v55.7c0,4.2-2.2,8-5.8,10.1
				l-48.2,27.8c-3.6,2.1-8.1,2.1-11.7,0l-44.5-25.7c-3.7-2.1-8.2-2.1-11.9,0.1l-42.5,25.6c-7.6,4.6-7.5,15.7,0.2,20.1l98.7,57
				c3.6,2.1,8.1,2.1,11.7,0l115-66.4c3.6-2.1,5.8-5.9,5.8-10.1V223.3c0-4.2-2.2-8-5.8-10.1L424,157.2
				C416.2,152.7,406.5,158.4,406.5,167.4z"/>
			<path fill="#FFFFFF" d="M346,251.7l41.7-24.1c3.6-2.1,5.8-5.9,5.8-10.1v-50.1c0-9-9.7-14.6-17.5-10.1l-96.8,55.9
				c-3.6,2.1-5.8,5.9-5.8,10.1v109.6c0,9.1,9.9,14.7,17.7,10l43.4-26.1c3.5-2.1,5.7-5.9,5.7-10v-44.9
				C340.1,257.6,342.3,253.8,346,251.7z"/>
		</g>
		<g>
			<g>
				<g>
					<g>
						<g>
							<path fill="#FFFFFF" d="M150.3,492.3c2,0,3.8,0.2,5.5,0.6l-1.5,11.7c-2.8-0.3-5-0.4-7.5-0.3c-8.5,0.2-15.5,3.8-28.3,14.5
								v57.9h-14v-81.6h11.3l1,14C131.2,496.9,139.9,492.3,150.3,492.3L150.3,492.3z"/>
							<path fill="#FFFFFF" d="M250.1,502.1c5.4,6.6,7.2,16.7,5.7,31.4l-0.4,4.4l-55.6,0c0.3,24.2,5.4,31,23.7,31
								c12.2,0,18.5-1.6,26-3.7l1.9,9.9c-6.8,2.2-14.8,4.3-27.8,4.3c-30.1,0-38.3-11.6-38.3-45.4c0-31.3,11.8-41.8,38.3-41.8
								C235.3,492.3,244.4,495.2,250.1,502.1z M199.7,530.2h44.4c0.7-9.8-0.7-16.5-3.7-20.6c-3.4-4.7-9.1-6.7-17-6.7
								C207.5,502.9,200.4,509,199.7,530.2z"/>
							<path fill="#FFFFFF" d="M310.1,505.9c11.4-10.1,18.7-13.5,27.7-13.5c25.8,0,32.8,11.6,32.8,45.4c0,31.5-12.5,41.8-35.3,41.8
								c-11.8,0-24-2.4-39.3-6.5V462.4h14V505.9z M310.1,517.2v47.2c10,2.7,16.6,3.7,23.9,3.7c15.7,0,22.4-7.3,22.4-31.2
								c0-26.4-4.7-34.2-22.4-34.2C327.1,502.8,322,505.6,310.1,517.2z"/>
							<path fill="#FFFFFF" d="M481.5,499.5l0,77.2h-11.3l-1-13.4c-13.9,13.2-20.1,16.1-29.6,16.1c-24.6,0-31.4-12.1-31.3-45.4
								c0-31.2,10.5-41.8,33.9-41.8C454.6,492.3,466.6,494.8,481.5,499.5z M422.4,533.8c0,25.9,4.5,33.9,22,33.9
								c6.8,0,11.4-2.3,23.1-13.7v-46.8c-8.5-2.9-15.4-4.4-22.8-4.4C428.8,502.8,422.4,510.2,422.4,533.8z"/>
							<path fill="#FFFFFF" d="M535.6,566.5h52.2v10.2h-68.3v-11.2l50.6-60.2h-47.3v-10.2h63.4v11.2L535.6,566.5z"/>
							<path fill="#FFFFFF" d="M689.3,502.1c5.4,6.6,7.2,16.7,5.7,31.4l-0.4,4.4l-55.6,0c0.3,24.2,5.4,31,23.7,31
								c12.2,0,18.5-1.6,26-3.7l1.9,9.9c-6.8,2.2-14.8,4.3-27.8,4.3c-30.1,0-38.3-11.6-38.3-45.4c0-31.3,11.8-41.8,38.3-41.8
								C674.5,492.3,683.6,495.2,689.3,502.1z M638.9,530.2h44.4c0.7-9.8-0.7-16.5-3.7-20.6c-3.4-4.7-9.1-6.7-17-6.7
								C646.7,502.9,639.6,509,638.9,530.2z"/>
						</g>
					</g>
				</g>
			</g>
		</g>
	</g>
</g>
</svg>
