<?xml version="1.0" encoding="utf-8"?>
<!-- Generator: Adobe Illustrator 18.1.1, SVG Export Plug-In . SVG Version: 6.00 Build 0)  -->
<!DOCTYPE svg PUBLIC "-//W3C//DTD SVG 1.0//EN" "http://www.w3.org/TR/2001/REC-SVG-20010904/DTD/svg10.dtd">
<svg version="1.0" id="Livello_1" xmlns="http://www.w3.org/2000/svg" xmlns:xlink="http://www.w3.org/1999/xlink" x="0px" y="0px"
	 viewBox="0 0 400 400" enable-background="new 0 0 400 400" xml:space="preserve">
<g>
	<path d="M208,42.4v61.9c0,5.2,2.8,9.9,7.2,12.5l51.6,29.8c4.5,2.6,7.2,7.3,7.2,12.5v68.8c0,5.2-2.8,9.9-7.2,12.5l-59.6,34.4
		c-4.5,2.6-10,2.6-14.4,0l-55-31.8c-4.5-2.6-10.2-2.6-14.7,0.1l-52.5,31.6c-9.4,5.7-9.3,19.4,0.2,24.9l122,70.4
		c4.5,2.6,10,2.6,14.4,0l142.1-82c4.5-2.6,7.2-7.3,7.2-12.5v-164c0-5.2-2.8-9.9-7.2-12.5L229.6,29.9C220,24.4,208,31.3,208,42.4z"/>
	<path d="M133.2,146.7l51.6-29.8c4.5-2.6,7.2-7.3,7.2-12.5V42.4c0-11.1-12-18.1-21.6-12.5L50.7,99c-4.5,2.6-7.2,7.3-7.2,12.5v135.4
		c0,11.2,12.3,18.2,21.9,12.4L119,227c4.3-2.6,7-7.3,7-12.4v-55.5C126,154,128.8,149.2,133.2,146.7z"/>
</g>
</svg>
