<?xml version="1.0" encoding="utf-8"?>
<!-- Generator: Adobe Illustrator 18.1.1, SVG Export Plug-In . SVG Version: 6.00 Build 0)  -->
<!DOCTYPE svg PUBLIC "-//W3C//DTD SVG 1.1//EN" "http://www.w3.org/Graphics/SVG/1.1/DTD/svg11.dtd">
<svg version="1.1" id="Livello_1" xmlns="http://www.w3.org/2000/svg" xmlns:xlink="http://www.w3.org/1999/xlink" x="0px" y="0px"
	 viewBox="0 0 1000 500" enable-background="new 0 0 1000 500" xml:space="preserve">
<rect width="1000" height="500"/>
<g>
	<g>
		<path fill="#FFFFFF" d="M188.2,144.8v41.4c0,3.4,1.8,6.6,4.8,8.3l34.4,19.9c3,1.7,4.8,4.9,4.8,8.3v45.9c0,3.4-1.8,6.6-4.8,8.3
			l-39.8,23c-3,1.7-6.7,1.7-9.6,0l-36.7-21.2c-3-1.8-6.8-1.7-9.8,0.1l-35.1,21.1c-6.3,3.8-6.2,12.9,0.1,16.6l81.5,47
			c3,1.7,6.7,1.7,9.6,0l94.9-54.8c3-1.7,4.8-4.9,4.8-8.3V190.9c0-3.4-1.8-6.6-4.8-8.3l-79.9-46.1
			C196.2,132.7,188.2,137.4,188.2,144.8z"/>
		<path fill="#E60040" d="M138.3,214.4l34.4-19.9c3-1.7,4.8-4.9,4.8-8.3v-41.4c0-7.4-8-12.1-14.5-8.3l-79.9,46.1
			c-3,1.7-4.8,4.9-4.8,8.3v90.4c0,7.5,8.2,12.1,14.6,8.3l35.8-21.5c2.9-1.7,4.7-4.9,4.7-8.3v-37.1
			C133.5,219.3,135.3,216.1,138.3,214.4z"/>
	</g>
	<g>
		<g>
			<g>
				<g>
					<g>
						<g>
							<path fill="#FFFFFF" d="M380.1,213c2,0,3.8,0.2,5.5,0.6l-1.5,11.6c-2.8-0.3-5-0.4-7.4-0.3c-8.5,0.2-15.4,3.8-28.1,14.4v57.5
								h-13.9v-81.1h11.2l1,13.9C361.2,217.6,369.8,213,380.1,213L380.1,213z"/>
							<path fill="#FFFFFF" d="M479.2,222.7c5.4,6.5,7.2,16.6,5.6,31.2l-0.4,4.4l-55.2,0c0.3,24,5.4,30.8,23.5,30.8
								c12.1,0,18.4-1.6,25.8-3.6l1.9,9.9c-6.8,2.2-14.7,4.3-27.6,4.3c-29.9,0-38.1-11.5-38.1-45.1c0-31,11.7-41.5,38-41.5
								C464.5,213,473.6,215.9,479.2,222.7z M429.2,250.6h44.1c0.7-9.7-0.7-16.4-3.7-20.5c-3.4-4.7-9-6.6-16.9-6.6
								C437,223.5,429.9,229.5,429.2,250.6z"/>
							<path fill="#FFFFFF" d="M538.8,226.5c11.4-10,18.6-13.5,27.5-13.5c25.6,0,32.6,11.5,32.6,45.1c0,31.3-12.4,41.5-35,41.5
								c-11.7,0-23.8-2.4-39-6.5V183.3h13.9V226.5z M538.8,237.8v46.9c9.9,2.7,16.5,3.7,23.7,3.7c15.6,0,22.3-7.3,22.3-31
								c0-26.2-4.6-33.9-22.3-33.9C555.8,223.4,550.6,226.2,538.8,237.8z"/>
							<path fill="#FFFFFF" d="M709,220.2l0,76.7h-11.2l-1-13.3c-13.8,13.1-19.9,16-29.4,16c-24.4,0-31.2-12-31.1-45.1
								c0-31,10.4-41.5,33.7-41.5C682.4,213,694.3,215.5,709,220.2z M650.4,254.2c0,25.7,4.5,33.7,21.8,33.7
								c6.7,0,11.3-2.2,22.9-13.7v-46.4c-8.4-2.9-15.3-4.4-22.7-4.4C656.8,223.4,650.4,230.7,650.4,254.2z"/>
							<path fill="#FFFFFF" d="M762.8,286.7h51.8v10.1h-67.8v-11.1l50.3-59.8h-46.9v-10.2h62.9v11.1L762.8,286.7z"/>
							<path fill="#FFFFFF" d="M915.5,222.7c5.4,6.5,7.2,16.6,5.6,31.2l-0.4,4.4l-55.2,0c0.3,24,5.4,30.8,23.5,30.8
								c12.1,0,18.4-1.6,25.8-3.6l1.9,9.9c-6.8,2.2-14.7,4.3-27.6,4.3c-29.9,0-38.1-11.5-38.1-45.1c0-31,11.7-41.5,38-41.5
								C900.7,213,909.9,215.9,915.5,222.7z M865.4,250.6h44.1c0.7-9.7-0.7-16.4-3.7-20.5c-3.4-4.7-9-6.6-16.9-6.6
								C873.2,223.5,866.1,229.5,865.4,250.6z"/>
						</g>
					</g>
				</g>
			</g>
		</g>
	</g>
</g>
</svg>
