<?xml version="1.0" encoding="utf-8"?>
<!-- Generator: Adobe Illustrator 18.1.1, SVG Export Plug-In . SVG Version: 6.00 Build 0)  -->
<!DOCTYPE svg PUBLIC "-//W3C//DTD SVG 1.1//EN" "http://www.w3.org/Graphics/SVG/1.1/DTD/svg11.dtd">
<svg version="1.1" id="Livello_1" xmlns="http://www.w3.org/2000/svg" xmlns:xlink="http://www.w3.org/1999/xlink" x="0px" y="0px"
	 viewBox="0 0 1000 500" enable-background="new 0 0 1000 500" xml:space="preserve">
<g>
	<g>
		<path d="M198,113v46.3c0,3.9,2.1,7.4,5.4,9.3L242,191c3.3,1.9,5.4,5.5,5.4,9.3v51.4c0,3.9-2.1,7.4-5.4,9.3l-44.6,25.7
			c-3.3,1.9-7.5,1.9-10.8,0l-41.2-23.8c-3.4-2-7.6-1.9-11,0.1l-39.3,23.6c-7,4.2-7,14.5,0.2,18.6l91.3,52.7c3.3,1.9,7.5,1.9,10.8,0
			l106.3-61.4c3.3-1.9,5.4-5.5,5.4-9.3V164.7c0-3.9-2.1-7.4-5.4-9.3l-89.5-51.7C207,99.5,198,104.7,198,113z"/>
		<path fill="#E60040" d="M142.1,191l38.6-22.3c3.3-1.9,5.4-5.5,5.4-9.3V113c0-8.3-9-13.5-16.2-9.3l-89.5,51.7
			c-3.3,1.9-5.4,5.5-5.4,9.3V266c0,8.4,9.2,13.6,16.4,9.2l40.1-24.1c3.2-2,5.2-5.5,5.2-9.2v-41.5C136.7,196.5,138.8,192.9,142.1,191
			z"/>
	</g>
	<g>
		<g>
			<path d="M361.3,299.3c7,0,9.4,2.9,9.4,9.3c0,5.8-2.6,9.1-9.5,9.1c-3.3,0-5.2-0.1-7-0.3V328h-4.9v-28.7H361.3z M354.2,313.5
				c1.5,0.2,3,0.3,5.9,0.3c4.3,0,5.8-1.8,5.8-5.3c0-3.9-1.4-5.4-5.8-5.4h-5.9V313.5z"/>
			<path d="M419.2,313.1c0,10.8-2.7,15.6-12.7,15.6c-10.1,0-13-4-13-15.7c0-10.8,4.1-14.5,13-14.4
				C414.5,298.6,419.2,302.5,419.2,313.1z M398.7,313.2c0,8.7,1.5,11.4,7.7,11.4c6.1,0,7.5-3.2,7.5-11.3c0-7.7-2.6-10.5-7.5-10.5
				C400.9,302.8,398.7,305.3,398.7,313.2z"/>
			<path d="M465.7,328l-6-19.9l-6,19.9h-6.6l-7.6-28.7l4.9,0l6.2,24.2l6.6-24.2h4.8l6.6,24.2l6.2-24.2l4.9,0l-7.6,28.7H465.7z"/>
			<path d="M507,303.3v8h12.8v3.8H507v9h14.5v4h-19.4v-28.7h19v4H507z"/>
			<path d="M556.1,299.3c7,0,9.4,2.6,9.4,8.3c0,3.8-1.4,6.4-5,7.5c1.6,0.6,2.8,1.9,3.5,4l2.7,8.8h-5.2l-2.5-8.1
				c-0.7-2.1-1.9-2.8-3.5-2.8h-1.3c-2.5,0-3.8-0.1-5.2-0.2V328h-4.9v-28.7H556.1z M549.1,312.9c1.5,0.2,3,0.3,5.8,0.3
				c4.3,0,5.8-1.7,5.8-5c0-3.6-1.4-5.1-5.8-5.1h-5.9V312.9z"/>
			<path d="M628.5,303.3V328h-4.9v-24.8h-8.7v-4h22.2v4H628.5z"/>
			<path d="M682.7,313.1c0,10.8-2.7,15.6-12.7,15.6c-10.1,0-13-4-13-15.7c0-10.8,4.1-14.5,13-14.4
				C678,298.6,682.7,302.5,682.7,313.1z M662.3,313.2c0,8.7,1.5,11.4,7.7,11.4c6.1,0,7.5-3.2,7.5-11.3c0-7.7-2.6-10.5-7.5-10.5
				C664.5,302.8,662.3,305.3,662.3,313.2z"/>
			<path d="M746.7,299.3c6.3,0,8.5,2.3,8.5,7.3c0,3.3-1.2,5.5-4.2,6.5c3.9,0.9,5.4,3.4,5.4,7.7c0,5-2.6,7.9-9.5,7.9
				c-6.7,0-9-0.3-12.8-0.8v-28.6H746.7z M739.1,311.7h6.3c3.8,0,5.1-1.5,5.1-4.2c0-3.1-1.2-4.3-5.1-4.3h-6.2V311.7z M739.1,324.4
				c1.8,0.2,3.2,0.3,6.5,0.3c4.3,0,5.8-1.7,5.8-4.8c0-3.5-1.4-5-5.8-5h-6.6V324.4z"/>
			<path d="M783.9,315.4c0,7,1.2,9.2,6.8,9.2c5.5,0,6.6-2.6,6.6-9.1v-16.1h5v16.1c0,9.3-2.5,13.3-11.6,13.3
				c-9.2,0-11.8-3.3-11.8-13.3v-16.1h5V315.4z"/>
			<path d="M826.4,328v-28.7h4.9V328H826.4z"/>
			<path d="M873.5,324v4h-17.9v-28.7h4.9V324H873.5z"/>
			<path d="M907.2,299.3c7.7,0,12.1,3.3,12.1,13.9c0,10.8-2.5,15.6-12.1,15.6c-5.7,0-7.6-0.3-11.4-1.4v-28.1H907.2z M900.8,323.8
				c1.9,0.6,3.1,0.8,6.1,0.8c5.8,0,7.3-3.3,7.3-11.4c0-7.8-2.6-10.1-7.3-10.1h-6.1V323.8z"/>
		</g>
		<g>
			<g>
				<g>
					<g>
						<g>
							<path d="M388.7,184.2c2,0,3.8,0.2,5.4,0.6l-1.5,11.5c-2.7-0.2-5-0.4-7.4-0.3c-8.4,0.2-15.2,3.7-27.9,14.2v56.9h-13.8v-80.3
								h11.1l1,13.7C369.9,188.7,378.4,184.2,388.7,184.2L388.7,184.2z"/>
							<path d="M486.9,193.8c5.3,6.5,7.1,16.4,5.6,30.9L492,229l-54.7,0c0.3,23.8,5.3,30.5,23.3,30.5c12,0,18.2-1.6,25.6-3.6
								l1.9,9.8c-6.7,2.2-14.5,4.2-27.4,4.2c-29.6,0-37.7-11.4-37.7-44.6c0-30.7,11.6-41.1,37.7-41.1
								C472.2,184.2,481.3,187,486.9,193.8z M437.3,221.4H481c0.7-9.6-0.7-16.3-3.6-20.3c-3.4-4.7-8.9-6.6-16.7-6.6
								C445,194.5,438,200.5,437.3,221.4z"/>
							<path d="M545.8,197.5c11.3-9.9,18.4-13.3,27.2-13.3c25.4,0,32.3,11.4,32.3,44.6c0,31-12.3,41.1-34.7,41.1
								c-11.6,0-23.6-2.3-38.6-6.4V154.8h13.8V197.5z M545.8,208.7v46.4c9.8,2.6,16.4,3.6,23.5,3.6c15.5,0,22.1-7.2,22.1-30.7
								c0-26-4.6-33.6-22.1-33.6C562.6,194.5,557.6,197.2,545.8,208.7z"/>
							<path d="M714.4,191.2l0,75.9h-11.1l-1-13.1c-13.7,13-19.7,15.9-29.1,15.9c-24.2,0-30.9-11.9-30.8-44.6
								c0-30.7,10.3-41.1,33.3-41.1C688.1,184.2,699.9,186.6,714.4,191.2z M656.3,224.9c0,25.4,4.4,33.4,21.6,33.4
								c6.7,0,11.2-2.2,22.7-13.5v-46c-8.3-2.8-15.2-4.3-22.5-4.4C662.7,194.4,656.3,201.7,656.3,224.9z"/>
							<path d="M767.7,257.1H819v10h-67.1v-11l49.8-59.2h-46.5v-10.1h62.3v11L767.7,257.1z"/>
							<path d="M918.9,193.8c5.3,6.5,7.1,16.4,5.6,30.9l-0.4,4.3l-54.7,0c0.3,23.8,5.3,30.5,23.3,30.5c12,0,18.2-1.6,25.6-3.6
								l1.9,9.8c-6.7,2.2-14.5,4.2-27.4,4.2c-29.6,0-37.7-11.4-37.7-44.6c0-30.7,11.6-41.1,37.7-41.1
								C904.3,184.2,913.3,187,918.9,193.8z M869.3,221.4H913c0.7-9.6-0.7-16.3-3.6-20.3c-3.4-4.7-8.9-6.6-16.7-6.6
								C877,194.5,870,200.5,869.3,221.4z"/>
						</g>
					</g>
				</g>
			</g>
		</g>
	</g>
</g>
</svg>
